<?xml version="1.0" standalone="no"?>
<!DOCTYPE svg PUBLIC "-//W3C//DTD SVG 20010904//EN"
 "http://www.w3.org/TR/2001/REC-SVG-20010904/DTD/svg10.dtd">
<svg version="1.0" xmlns="http://www.w3.org/2000/svg"
 width="342.000000pt" height="342.000000pt" viewBox="0 0 342.000000 342.000000"
 preserveAspectRatio="xMidYMid meet">
<metadata>
Created by potrace 1.11, written by Peter Selinger 2001-2013
</metadata>
<g transform="translate(0.000000,342.000000) scale(0.100000,-0.100000)"
fill="#000000" stroke="none">
<path d="M2413 2514 c-32 -49 -61 -90 -65 -92 -5 -2 -8 -8 -8 -14 0 -6 -11
-26 -25 -44 -14 -18 -25 -35 -25 -38 0 -3 -20 -36 -45 -73 -25 -37 -45 -69
-45 -72 1 -3 50 -46 111 -96 160 -132 210 -173 249 -209 19 -17 64 -56 100
-86 36 -30 67 -57 70 -60 3 -3 51 -45 107 -93 l102 -88 59 53 c31 29 95 87
141 128 46 41 105 94 130 116 l45 42 -99 30 c-55 17 -121 37 -148 44 l-47 12
5 101 c2 55 7 155 11 223 4 67 4 122 1 122 -12 0 -326 -61 -379 -74 l-56 -13
-58 126 c-31 69 -60 130 -65 135 -4 4 -34 -32 -66 -80z m57 -13 c0 -5 22 -57
50 -115 40 -85 54 -106 71 -106 11 0 103 18 202 41 100 22 186 42 192 42 10 2
10 -9 2 -133 -3 -41 -8 -123 -12 -181 l-8 -105 124 -40 c67 -22 124 -44 125
-50 2 -8 -35 -41 -236 -213 l-39 -33 -143 123 c-79 68 -145 126 -148 129 -3 3
-21 18 -40 34 -33 27 -150 128 -174 151 -6 6 -50 43 -98 83 l-86 73 85 132
c47 73 93 144 102 159 14 24 31 29 31 9z"/>
<path d="M2423 2414 c-35 -51 -125 -205 -122 -208 51 -39 566 -471 594 -498
22 -21 47 -38 55 -38 8 0 36 20 61 44 25 23 63 55 83 71 20 15 36 32 36 39 0
6 -46 29 -101 51 l-102 39 7 120 c3 67 9 158 13 204 4 54 2 82 -4 82 -6 0 -94
-20 -194 -45 -101 -25 -187 -45 -191 -45 -4 0 -32 48 -61 106 l-54 107 -20
-29z"/>
<path d="M1420 1535 l0 -515 45 0 45 0 0 515 0 515 -45 0 -45 0 0 -515z"/>
<path d="M873 1820 c-78 -16 -104 -46 -89 -104 12 -48 28 -55 93 -40 32 8 73
14 91 14 33 0 33 -1 27 -32 -13 -58 -62 -221 -83 -277 -39 -101 -88 -152 -147
-154 -41 -1 -73 25 -77 62 -2 21 -9 27 -36 29 -50 5 -72 -20 -72 -81 0 -44 4
-54 35 -82 86 -81 253 -67 350 31 50 49 89 137 164 366 68 206 69 227 17 259
-25 15 -49 19 -131 18 -55 -1 -119 -5 -142 -9z"/>
<path d="M2009 1816 c-77 -27 -175 -124 -215 -211 -76 -166 -66 -342 26 -436
55 -58 129 -79 207 -62 30 7 54 8 65 2 23 -12 95 -11 120 2 16 9 19 17 14 44
-4 22 2 59 19 111 27 87 32 142 13 166 -9 11 -36 18 -78 22 -36 3 -89 8 -119
12 -62 8 -81 -6 -81 -60 0 -50 13 -61 72 -61 42 0 53 -4 56 -17 6 -31 -30 -89
-65 -106 -31 -15 -37 -15 -61 -1 -76 42 -79 212 -8 366 49 104 150 170 196
128 26 -23 26 -75 0 -108 -27 -34 -25 -63 5 -92 49 -50 134 -21 155 53 21 78
1 161 -51 209 -54 49 -188 68 -270 39z"/>
</g>
</svg>
